<?xml version="1.0" encoding="UTF-8" standalone="no"?>
<!DOCTYPE svg PUBLIC "-//W3C//DTD SVG 1.1//EN"
 "http://www.w3.org/Graphics/SVG/1.1/DTD/svg11.dtd">
<!-- Generated by graphviz version 5.0.0 (20220707.1540)
 -->
<!-- Title: dependencies Pages: 1 -->
<svg width="192pt" height="247pt"
 viewBox="0.00 0.00 192.00 246.80" xmlns="http://www.w3.org/2000/svg" xmlns:xlink="http://www.w3.org/1999/xlink">
<g id="graph0" class="graph" transform="scale(1 1) rotate(0) translate(4 242.8)">
<title>dependencies</title>
<polygon fill="white" stroke="transparent" points="-4,4 -4,-242.8 188,-242.8 188,4 -4,4"/>
<text text-anchor="middle" x="92" y="-8.2" font-family="sans-serif" font-size="14.00">dependencies</text>
<g id="clust1" class="cluster">
<title>cluster_LoggerModule</title>
<polygon fill="none" stroke="black" stroke-dasharray="1,5" points="8,-32.8 8,-230.8 176,-230.8 176,-32.8 8,-32.8"/>
</g>
<g id="clust4" class="cluster">
<title>cluster_LoggerModule_exports</title>
<polygon fill="none" stroke="black" points="33,-170.8 33,-222.8 151,-222.8 151,-170.8 33,-170.8"/>
</g>
<g id="clust6" class="cluster">
<title>cluster_LoggerModule_providers</title>
<polygon fill="none" stroke="black" points="16,-40.8 16,-92.8 168,-92.8 168,-40.8 16,-40.8"/>
</g>
<g id="clust3" class="cluster">
<title>cluster_LoggerModule_imports</title>
<polygon fill="none" stroke="black" points="34,-105.8 34,-157.8 168,-157.8 168,-105.8 34,-105.8"/>
</g>
<!-- LoggerModule -->
<g id="node1" class="node">
<title>LoggerModule</title>
<polygon fill="#8dd3c7" stroke="black" points="141.98,-149.8 138.98,-153.8 117.98,-153.8 114.98,-149.8 42.02,-149.8 42.02,-113.8 141.98,-113.8 141.98,-149.8"/>
<text text-anchor="middle" x="92" y="-127.6" font-family="Times,serif" font-size="14.00">LoggerModule</text>
</g>
<!-- LoggerModule&#45;&gt;LoggerModule -->
<g id="edge1" class="edge">
<title>LoggerModule&#45;&gt;LoggerModule</title>
<path fill="none" stroke="black" d="M108.66,-113.56C108.66,-106.37 108.66,-99.8 108.66,-99.8 108.66,-99.8 151.42,-99.8 151.42,-99.8 151.42,-99.8 151.42,-164.8 151.42,-164.8 151.42,-164.8 108.66,-164.8 108.66,-164.8 108.66,-164.8 108.66,-159.84 108.66,-159.84"/>
<polygon fill="black" stroke="black" points="112.16,-159.84 108.66,-149.84 105.16,-159.84 112.16,-159.84"/>
</g>
<!-- LoggerService  -->
<g id="node2" class="node">
<title>LoggerService </title>
<polygon fill="#fb8072" stroke="black" points="142.91,-214.8 41.09,-214.8 41.09,-178.8 142.91,-178.8 142.91,-214.8"/>
<text text-anchor="middle" x="92" y="-192.6" font-family="Times,serif" font-size="14.00">LoggerService </text>
</g>
<!-- LoggerModule&#45;&gt;LoggerService  -->
<g id="edge2" class="edge">
<title>LoggerModule&#45;&gt;LoggerService </title>
<path fill="none" stroke="black" stroke-dasharray="5,2" d="M75.34,-149.91C75.34,-149.91 75.34,-168.79 75.34,-168.79"/>
<polygon fill="black" stroke="black" points="71.84,-168.79 75.34,-178.79 78.84,-168.79 71.84,-168.79"/>
</g>
<!-- LoggerService -->
<g id="node3" class="node">
<title>LoggerService</title>
<ellipse fill="#fdb462" stroke="black" cx="92" cy="-66.8" rx="67.76" ry="18"/>
<text text-anchor="middle" x="92" y="-62.6" font-family="Times,serif" font-size="14.00">LoggerService</text>
</g>
<!-- LoggerService&#45;&gt;LoggerModule -->
<g id="edge3" class="edge">
<title>LoggerService&#45;&gt;LoggerModule</title>
<path fill="none" stroke="black" d="M75.34,-84.56C75.34,-84.56 75.34,-103.61 75.34,-103.61"/>
<polygon fill="black" stroke="black" points="71.84,-103.61 75.34,-113.61 78.84,-103.61 71.84,-103.61"/>
</g>
</g>
</svg>
