<?xml version="1.0" encoding="UTF-8" standalone="no"?>
<!DOCTYPE svg PUBLIC "-//W3C//DTD SVG 1.1//EN"
 "http://www.w3.org/Graphics/SVG/1.1/DTD/svg11.dtd">
<!-- Generated by graphviz version 5.0.0 (20220707.1540)
 -->
<!-- Title: dependencies Pages: 1 -->
<svg width="306pt" height="247pt"
 viewBox="0.00 0.00 306.00 246.80" xmlns="http://www.w3.org/2000/svg" xmlns:xlink="http://www.w3.org/1999/xlink">
<g id="graph0" class="graph" transform="scale(1 1) rotate(0) translate(4 242.8)">
<title>dependencies</title>
<polygon fill="white" stroke="transparent" points="-4,4 -4,-242.8 302,-242.8 302,4 -4,4"/>
<text text-anchor="middle" x="149" y="-8.2" font-family="sans-serif" font-size="14.00">dependencies</text>
<g id="clust1" class="cluster">
<title>cluster_TasksModule</title>
<polygon fill="none" stroke="black" stroke-dasharray="1,5" points="8,-32.8 8,-230.8 290,-230.8 290,-32.8 8,-32.8"/>
</g>
<g id="clust3" class="cluster">
<title>cluster_TasksModule_imports</title>
<polygon fill="none" stroke="black" points="166,-40.8 166,-92.8 282,-92.8 282,-40.8 166,-40.8"/>
</g>
<g id="clust4" class="cluster">
<title>cluster_TasksModule_exports</title>
<polygon fill="none" stroke="black" points="100,-170.8 100,-222.8 210,-222.8 210,-170.8 100,-170.8"/>
</g>
<g id="clust6" class="cluster">
<title>cluster_TasksModule_providers</title>
<polygon fill="none" stroke="black" points="16,-40.8 16,-92.8 158,-92.8 158,-40.8 16,-40.8"/>
</g>
<!-- LoggerModule -->
<g id="node1" class="node">
<title>LoggerModule</title>
<polygon fill="#8dd3c7" stroke="black" points="273.98,-84.8 270.98,-88.8 249.98,-88.8 246.98,-84.8 174.02,-84.8 174.02,-48.8 273.98,-48.8 273.98,-84.8"/>
<text text-anchor="middle" x="224" y="-62.6" font-family="Times,serif" font-size="14.00">LoggerModule</text>
</g>
<!-- TasksModule -->
<g id="node2" class="node">
<title>TasksModule</title>
<polygon fill="#8dd3c7" stroke="black" points="201.21,-149.8 198.21,-153.8 177.21,-153.8 174.21,-149.8 108.79,-149.8 108.79,-113.8 201.21,-113.8 201.21,-149.8"/>
<text text-anchor="middle" x="155" y="-127.6" font-family="Times,serif" font-size="14.00">TasksModule</text>
</g>
<!-- LoggerModule&#45;&gt;TasksModule -->
<g id="edge1" class="edge">
<title>LoggerModule&#45;&gt;TasksModule</title>
<path fill="none" stroke="black" d="M187.56,-84.91C187.56,-84.91 187.56,-103.79 187.56,-103.79"/>
<polygon fill="black" stroke="black" points="184.06,-103.79 187.56,-113.79 191.06,-103.79 184.06,-103.79"/>
</g>
<!-- TasksService  -->
<g id="node3" class="node">
<title>TasksService </title>
<polygon fill="#fb8072" stroke="black" points="202.14,-214.8 107.86,-214.8 107.86,-178.8 202.14,-178.8 202.14,-214.8"/>
<text text-anchor="middle" x="155" y="-192.6" font-family="Times,serif" font-size="14.00">TasksService </text>
</g>
<!-- TasksModule&#45;&gt;TasksService  -->
<g id="edge2" class="edge">
<title>TasksModule&#45;&gt;TasksService </title>
<path fill="none" stroke="black" stroke-dasharray="5,2" d="M155,-149.91C155,-149.91 155,-168.79 155,-168.79"/>
<polygon fill="black" stroke="black" points="151.5,-168.79 155,-178.79 158.5,-168.79 151.5,-168.79"/>
</g>
<!-- TasksService -->
<g id="node4" class="node">
<title>TasksService</title>
<ellipse fill="#fdb462" stroke="black" cx="87" cy="-66.8" rx="62.55" ry="18"/>
<text text-anchor="middle" x="87" y="-62.6" font-family="Times,serif" font-size="14.00">TasksService</text>
</g>
<!-- TasksService&#45;&gt;TasksModule -->
<g id="edge3" class="edge">
<title>TasksService&#45;&gt;TasksModule</title>
<path fill="none" stroke="black" d="M129.21,-80.27C129.21,-80.27 129.21,-103.66 129.21,-103.66"/>
<polygon fill="black" stroke="black" points="125.71,-103.66 129.21,-113.66 132.71,-103.66 125.71,-103.66"/>
</g>
</g>
</svg>
