<?xml version="1.0" encoding="UTF-8" standalone="no"?>
<!DOCTYPE svg PUBLIC "-//W3C//DTD SVG 1.1//EN"
 "http://www.w3.org/Graphics/SVG/1.1/DTD/svg11.dtd">
<!-- Generated by graphviz version 5.0.0 (20220707.1540)
 -->
<!-- Title: dependencies Pages: 1 -->
<svg width="540pt" height="247pt"
 viewBox="0.00 0.00 540.00 246.80" xmlns="http://www.w3.org/2000/svg" xmlns:xlink="http://www.w3.org/1999/xlink">
<g id="graph0" class="graph" transform="scale(1 1) rotate(0) translate(4 242.8)">
<title>dependencies</title>
<polygon fill="white" stroke="transparent" points="-4,4 -4,-242.8 536,-242.8 536,4 -4,4"/>
<text text-anchor="middle" x="266" y="-8.2" font-family="sans-serif" font-size="14.00">dependencies</text>
<g id="clust1" class="cluster">
<title>cluster_AuthModule</title>
<polygon fill="none" stroke="black" stroke-dasharray="1,5" points="8,-32.8 8,-230.8 524,-230.8 524,-32.8 8,-32.8"/>
</g>
<g id="clust3" class="cluster">
<title>cluster_AuthModule_imports</title>
<polygon fill="none" stroke="black" points="290,-40.8 290,-92.8 516,-92.8 516,-40.8 290,-40.8"/>
</g>
<g id="clust6" class="cluster">
<title>cluster_AuthModule_providers</title>
<polygon fill="none" stroke="black" points="16,-40.8 16,-92.8 282,-92.8 282,-40.8 16,-40.8"/>
</g>
<g id="clust4" class="cluster">
<title>cluster_AuthModule_exports</title>
<polygon fill="none" stroke="black" points="226,-170.8 226,-222.8 332,-222.8 332,-170.8 226,-170.8"/>
</g>
<!-- LoggerModule -->
<g id="node1" class="node">
<title>LoggerModule</title>
<polygon fill="#8dd3c7" stroke="black" points="507.98,-84.8 504.98,-88.8 483.98,-88.8 480.98,-84.8 408.02,-84.8 408.02,-48.8 507.98,-48.8 507.98,-84.8"/>
<text text-anchor="middle" x="458" y="-62.6" font-family="Times,serif" font-size="14.00">LoggerModule</text>
</g>
<!-- AuthModule -->
<g id="node3" class="node">
<title>AuthModule</title>
<polygon fill="#8dd3c7" stroke="black" points="322.55,-149.8 319.55,-153.8 298.55,-153.8 295.55,-149.8 235.45,-149.8 235.45,-113.8 322.55,-113.8 322.55,-149.8"/>
<text text-anchor="middle" x="279" y="-127.6" font-family="Times,serif" font-size="14.00">AuthModule</text>
</g>
<!-- LoggerModule&#45;&gt;AuthModule -->
<g id="edge1" class="edge">
<title>LoggerModule&#45;&gt;AuthModule</title>
<path fill="none" stroke="black" d="M458,-84.91C458,-104.14 458,-131.8 458,-131.8 458,-131.8 332.79,-131.8 332.79,-131.8"/>
<polygon fill="black" stroke="black" points="332.79,-128.3 322.79,-131.8 332.79,-135.3 332.79,-128.3"/>
</g>
<!-- UsersModule -->
<g id="node2" class="node">
<title>UsersModule</title>
<polygon fill="#8dd3c7" stroke="black" points="389.94,-84.8 386.94,-88.8 365.94,-88.8 362.94,-84.8 298.06,-84.8 298.06,-48.8 389.94,-48.8 389.94,-84.8"/>
<text text-anchor="middle" x="344" y="-62.6" font-family="Times,serif" font-size="14.00">UsersModule</text>
</g>
<!-- UsersModule&#45;&gt;AuthModule -->
<g id="edge2" class="edge">
<title>UsersModule&#45;&gt;AuthModule</title>
<path fill="none" stroke="black" d="M310.53,-84.91C310.53,-84.91 310.53,-103.79 310.53,-103.79"/>
<polygon fill="black" stroke="black" points="307.03,-103.79 310.53,-113.79 314.03,-103.79 307.03,-103.79"/>
</g>
<!-- AuthService  -->
<g id="node4" class="node">
<title>AuthService </title>
<polygon fill="#fb8072" stroke="black" points="323.98,-214.8 234.02,-214.8 234.02,-178.8 323.98,-178.8 323.98,-214.8"/>
<text text-anchor="middle" x="279" y="-192.6" font-family="Times,serif" font-size="14.00">AuthService </text>
</g>
<!-- AuthModule&#45;&gt;AuthService  -->
<g id="edge3" class="edge">
<title>AuthModule&#45;&gt;AuthService </title>
<path fill="none" stroke="black" stroke-dasharray="5,2" d="M279,-149.91C279,-149.91 279,-168.79 279,-168.79"/>
<polygon fill="black" stroke="black" points="275.5,-168.79 279,-178.79 282.5,-168.79 275.5,-168.79"/>
</g>
<!-- AuthService -->
<g id="node5" class="node">
<title>AuthService</title>
<ellipse fill="#fdb462" stroke="black" cx="215" cy="-66.8" rx="59.11" ry="18"/>
<text text-anchor="middle" x="215" y="-62.6" font-family="Times,serif" font-size="14.00">AuthService</text>
</g>
<!-- AuthService&#45;&gt;AuthModule -->
<g id="edge4" class="edge">
<title>AuthService&#45;&gt;AuthModule</title>
<path fill="none" stroke="black" d="M254.77,-80.27C254.77,-80.27 254.77,-103.66 254.77,-103.66"/>
<polygon fill="black" stroke="black" points="251.27,-103.66 254.77,-113.66 258.27,-103.66 251.27,-103.66"/>
</g>
<!-- JwtStrategy -->
<g id="node6" class="node">
<title>JwtStrategy</title>
<ellipse fill="#fdb462" stroke="black" cx="81" cy="-66.8" rx="56.77" ry="18"/>
<text text-anchor="middle" x="81" y="-62.6" font-family="Times,serif" font-size="14.00">JwtStrategy</text>
</g>
<!-- JwtStrategy&#45;&gt;AuthModule -->
<g id="edge5" class="edge">
<title>JwtStrategy&#45;&gt;AuthModule</title>
<path fill="none" stroke="black" d="M81,-84.91C81,-104.14 81,-131.8 81,-131.8 81,-131.8 225.06,-131.8 225.06,-131.8"/>
<polygon fill="black" stroke="black" points="225.06,-135.3 235.06,-131.8 225.06,-128.3 225.06,-135.3"/>
</g>
</g>
</svg>
