<?xml version="1.0" encoding="UTF-8" standalone="no"?>
<!DOCTYPE svg PUBLIC "-//W3C//DTD SVG 1.1//EN"
 "http://www.w3.org/Graphics/SVG/1.1/DTD/svg11.dtd">
<!-- Generated by graphviz version 5.0.0 (20220707.1540)
 -->
<!-- Title: dependencies Pages: 1 -->
<svg width="737pt" height="174pt"
 viewBox="0.00 0.00 737.00 173.80" xmlns="http://www.w3.org/2000/svg" xmlns:xlink="http://www.w3.org/1999/xlink">
<g id="graph0" class="graph" transform="scale(1 1) rotate(0) translate(4 169.8)">
<title>dependencies</title>
<polygon fill="white" stroke="transparent" points="-4,4 -4,-169.8 733,-169.8 733,4 -4,4"/>
<text text-anchor="middle" x="364.5" y="-8.2" font-family="sans-serif" font-size="14.00">dependencies</text>
<g id="clust1" class="cluster">
<title>cluster_AppModule</title>
<polygon fill="none" stroke="black" stroke-dasharray="1,5" points="8,-32.8 8,-157.8 721,-157.8 721,-32.8 8,-32.8"/>
</g>
<g id="clust6" class="cluster">
<title>cluster_AppModule_providers</title>
<polygon fill="none" stroke="black" points="583,-40.8 583,-92.8 713,-92.8 713,-40.8 583,-40.8"/>
</g>
<g id="clust3" class="cluster">
<title>cluster_AppModule_imports</title>
<polygon fill="none" stroke="black" points="16,-40.8 16,-92.8 575,-92.8 575,-40.8 16,-40.8"/>
</g>
<!-- AuthModule -->
<g id="node1" class="node">
<title>AuthModule</title>
<polygon fill="#8dd3c7" stroke="black" points="566.55,-84.8 563.55,-88.8 542.55,-88.8 539.55,-84.8 479.45,-84.8 479.45,-48.8 566.55,-48.8 566.55,-84.8"/>
<text text-anchor="middle" x="523" y="-62.6" font-family="Times,serif" font-size="14.00">AuthModule</text>
</g>
<!-- AppModule -->
<g id="node6" class="node">
<title>AppModule</title>
<polygon fill="#8dd3c7" stroke="black" points="387.66,-149.8 384.66,-153.8 363.66,-153.8 360.66,-149.8 304.34,-149.8 304.34,-113.8 387.66,-113.8 387.66,-149.8"/>
<text text-anchor="middle" x="346" y="-127.6" font-family="Times,serif" font-size="14.00">AppModule</text>
</g>
<!-- AuthModule&#45;&gt;AppModule -->
<g id="edge1" class="edge">
<title>AuthModule&#45;&gt;AppModule</title>
<path fill="none" stroke="black" d="M523,-84.82C523,-102.17 523,-125.8 523,-125.8 523,-125.8 397.95,-125.8 397.95,-125.8"/>
<polygon fill="black" stroke="black" points="397.95,-122.3 387.95,-125.8 397.95,-129.3 397.95,-122.3"/>
</g>
<!-- ContractsModule -->
<g id="node2" class="node">
<title>ContractsModule</title>
<polygon fill="#8dd3c7" stroke="black" points="461.71,-84.8 458.71,-88.8 437.71,-88.8 434.71,-84.8 348.29,-84.8 348.29,-48.8 461.71,-48.8 461.71,-84.8"/>
<text text-anchor="middle" x="405" y="-62.6" font-family="Times,serif" font-size="14.00">ContractsModule</text>
</g>
<!-- ContractsModule&#45;&gt;AppModule -->
<g id="edge2" class="edge">
<title>ContractsModule&#45;&gt;AppModule</title>
<path fill="none" stroke="black" d="M368.11,-84.91C368.11,-84.91 368.11,-103.79 368.11,-103.79"/>
<polygon fill="black" stroke="black" points="364.61,-103.79 368.11,-113.79 371.61,-103.79 364.61,-103.79"/>
</g>
<!-- FilesModule -->
<g id="node3" class="node">
<title>FilesModule</title>
<polygon fill="#8dd3c7" stroke="black" points="330.28,-84.8 327.28,-88.8 306.28,-88.8 303.28,-84.8 243.72,-84.8 243.72,-48.8 330.28,-48.8 330.28,-84.8"/>
<text text-anchor="middle" x="287" y="-62.6" font-family="Times,serif" font-size="14.00">FilesModule</text>
</g>
<!-- FilesModule&#45;&gt;AppModule -->
<g id="edge3" class="edge">
<title>FilesModule&#45;&gt;AppModule</title>
<path fill="none" stroke="black" d="M317.28,-84.91C317.28,-84.91 317.28,-103.79 317.28,-103.79"/>
<polygon fill="black" stroke="black" points="313.78,-103.79 317.28,-113.79 320.78,-103.79 313.78,-103.79"/>
</g>
<!-- TasksModule -->
<g id="node4" class="node">
<title>TasksModule</title>
<polygon fill="#8dd3c7" stroke="black" points="226.21,-84.8 223.21,-88.8 202.21,-88.8 199.21,-84.8 133.79,-84.8 133.79,-48.8 226.21,-48.8 226.21,-84.8"/>
<text text-anchor="middle" x="180" y="-62.6" font-family="Times,serif" font-size="14.00">TasksModule</text>
</g>
<!-- TasksModule&#45;&gt;AppModule -->
<g id="edge4" class="edge">
<title>TasksModule&#45;&gt;AppModule</title>
<path fill="none" stroke="black" d="M180,-84.82C180,-102.17 180,-125.8 180,-125.8 180,-125.8 294.11,-125.8 294.11,-125.8"/>
<polygon fill="black" stroke="black" points="294.11,-129.3 304.11,-125.8 294.11,-122.3 294.11,-129.3"/>
</g>
<!-- UsersModule -->
<g id="node5" class="node">
<title>UsersModule</title>
<polygon fill="#8dd3c7" stroke="black" points="115.94,-84.8 112.94,-88.8 91.94,-88.8 88.94,-84.8 24.06,-84.8 24.06,-48.8 115.94,-48.8 115.94,-84.8"/>
<text text-anchor="middle" x="70" y="-62.6" font-family="Times,serif" font-size="14.00">UsersModule</text>
</g>
<!-- UsersModule&#45;&gt;AppModule -->
<g id="edge5" class="edge">
<title>UsersModule&#45;&gt;AppModule</title>
<path fill="none" stroke="black" d="M70,-85.08C70,-106.12 70,-137.8 70,-137.8 70,-137.8 294.08,-137.8 294.08,-137.8"/>
<polygon fill="black" stroke="black" points="294.08,-141.3 304.08,-137.8 294.08,-134.3 294.08,-141.3"/>
</g>
<!-- AppService -->
<g id="node7" class="node">
<title>AppService</title>
<ellipse fill="#fdb462" stroke="black" cx="648" cy="-66.8" rx="56.75" ry="18"/>
<text text-anchor="middle" x="648" y="-62.6" font-family="Times,serif" font-size="14.00">AppService</text>
</g>
<!-- AppService&#45;&gt;AppModule -->
<g id="edge6" class="edge">
<title>AppService&#45;&gt;AppModule</title>
<path fill="none" stroke="black" d="M648,-85.08C648,-106.12 648,-137.8 648,-137.8 648,-137.8 397.67,-137.8 397.67,-137.8"/>
<polygon fill="black" stroke="black" points="397.67,-134.3 387.67,-137.8 397.67,-141.3 397.67,-134.3"/>
</g>
</g>
</svg>
